<svg xmlns="http://www.w3.org/2000/svg" viewBox="0 0 1024 1024">
  <defs>
    <style>
    .a {
      fill: #fefefe;
    }

    .b {
      fill: #545454;
    }

    .c {
      fill: #323232;
    }

    .d {
      fill: #202020;
    }

    .e {
      fill: #797979;
    }

    </style>
  </defs>
  <title>图层 1</title>
  <path class="b" d="M634.85,443c-1.38,21.77-2.71,43.54-4.15,65.31-1.44,21.93-3,43.86-4.51,65.79-.08,1.15-.22,2.3-.36,3.64L513,653.22,400,577.69c-1.17-17.36-2.37-34.63-3.5-51.9q-2.72-41.37-5.36-82.75a31.52,31.52,0,0,1,5.06,1.77c6,3.3,11.83,6.76,17.74,10.16q31.32,18,62.66,36.09Q494.72,501.49,513,512l32.49-18.7c23.48-13.52,46.92-27.11,70.47-40.52C622.08,449.23,628.54,446.26,634.85,443Z" transform="translate(-1 -1)" />
  <path class="c" d="M616.38,721.5,513,800.7,409.62,721.53c-2.48-37.12-5-74.58-7.56-113.08L513,684.91l110.94-76.46C621.36,646.73,618.88,684,616.38,721.5Z" transform="translate(-1 -1)" />
  <path class="d" d="M608.26,842.79,513,923.51l-95.25-80.68c-2.09-31.22-4.2-62.75-6.39-95.49L513,826.94l101.64-79.59C612.46,779.79,610.37,811.12,608.26,842.79Z" transform="translate(-1 -1)" />
  <path class="e" d="M634.85,443c-6.31,3.22-12.77,6.19-18.91,9.69-23.55,13.41-47,27-70.47,40.52L513,512q-18.3-10.5-36.38-20.89Q445.27,473,413.94,455c-5.91-3.4-11.78-6.86-17.74-10.16a31.52,31.52,0,0,0-5.06-1.77c.77-.9,1.36-2.16,2.33-2.64Q453,411.17,512.88,382c4.62,2.22,9.27,4.41,13.88,6.66q52.22,25.54,104.4,51.15C632.58,440.46,633.63,441.93,634.85,443Z" transform="translate(-1 -1)" />
  <path class="b" d="M363.67,425.93c3.54,44.45,7.08,88.9,10.73,134.65l-93.9-62.76c-3.15-23.92-6.27-47.66-9.39-71.41q-3.28-25-6.53-50c-.31-2.46-.39-4.95-.58-7.42,2.21,1.13,4.48,2.17,6.64,3.41Q317.17,399.16,363.67,425.93Z" transform="translate(-1 -1)" />
  <path class="b" d="M762,369c-1.68,13.86-3.29,27.73-5.07,41.57-3.73,28.87-7.55,57.73-11.42,87.21l-93.89,62.77c3.62-45.61,7.15-90.11,10.68-134.61q20.28-11.61,40.55-23.2Q732.41,385.85,762,369Z" transform="translate(-1 -1)" />
  <path class="e" d="M363.67,425.93q-46.51-26.76-93-53.52c-2.16-1.24-4.43-2.28-6.64-3.41.57-.53,1.06-1.28,1.73-1.56,39.21-16.18,78.44-32.32,118.19-48.69l101.64,49.74Z" transform="translate(-1 -1)" />
  <path class="e" d="M762,369q-29.57,16.88-59.15,33.74-20.28,11.58-40.55,23.2L540.4,368.49,642,318.75q25.54,10.51,50.84,20.93,31.85,13.11,63.65,26.28A54.24,54.24,0,0,1,762,369Z" transform="translate(-1 -1)" />
  <path class="c" d="M727.25,636.58,640,703.43c3.09-38.13,6.09-75.06,9.12-112.34l92.49-63.78C736.69,564.53,732,600.55,727.25,636.58Z" transform="translate(-1 -1)" />
  <path class="c" d="M284.4,527.31l92.5,63.78c3,37,6,74,9.14,112.35l-87.29-66.83C294.06,600.86,289.32,564.76,284.4,527.31Z" transform="translate(-1 -1)" />
  <path class="b" d="M241.23,355.05c2.07,15.33,4.06,30.68,6.22,46q5.56,39.56,11.28,79.11a27.39,27.39,0,0,1,0,3.09l-78.87-52.7c-2.14-11.66-4.36-23.58-6.52-35.51q-7.54-41.52-15-83.05a34.47,34.47,0,0,1-.25-3.95q29.63,16.92,59.27,33.82C225.24,346.35,233.26,350.66,241.23,355.05Z" transform="translate(-1 -1)" />
  <path class="b" d="M867.92,308.05c-2,12.12-4,24.27-6.13,36.37q-7.42,41.54-15,83c-.18,1-.5,1.92-.84,3.2L766.86,483.5c1.65-11.71,3.13-22.36,4.65-33q6.62-46.47,13.26-92.95a14.7,14.7,0,0,0,0-2.48c7.84-4.29,15.73-8.49,23.5-12.9Q838.12,325.18,867.92,308.05Z" transform="translate(-1 -1)" />
  <path class="e" d="M614.84,307.52,513,355.55l-101.84-48,101.83-42Z" transform="translate(-1 -1)" />
  <path class="e" d="M241.23,355.05c-8-4.39-16-8.7-23.9-13.19Q187.66,325,158.06,308a10.39,10.39,0,0,1,2.3-1.63Q217,286.21,273.69,266.08a16.58,16.58,0,0,1,1.82-.32L361,307.53l-34.83,13.94q-40.78,16.3-81.58,32.59A34.26,34.26,0,0,1,241.23,355.05Z" transform="translate(-1 -1)" />
  <path class="e" d="M867.92,308.05q-29.83,17.06-59.68,34.11c-7.77,4.41-15.66,8.61-23.5,12.9-15.32-6-30.66-12-46-18.06q-34.11-13.53-68.17-27.19c-1.51-.6-3-1.28-5.47-2.35l85.67-41.9q22.25,7.89,44.29,15.7,34.32,12.24,68.63,24.54A31.4,31.4,0,0,1,867.92,308.05Z" transform="translate(-1 -1)" />
  <path class="d" d="M630.17,824.22c2.64-32.53,5.16-63.67,7.71-95.11l86-67.41c-4.19,32-8.21,62.6-12.26,93.49C684.85,777.89,658,800.65,630.17,824.22Z" transform="translate(-1 -1)" />
  <path class="d" d="M302.06,661.71l86,67.4c2.54,31.25,5.07,62.46,7.72,95.11l-81.49-69C310.3,724.51,306.27,693.82,302.06,661.71Z" transform="translate(-1 -1)" />
  <path class="c" d="M762.69,512.74l78.31-54c-6.5,35.91-12.77,70.52-19.06,105.28L747.3,621.2C752.56,584.16,757.61,548.57,762.69,512.74Z" transform="translate(-1 -1)" />
  <path class="c" d="M263.29,512.75l15.4,108.46-74.63-57.15c-6.28-34.61-12.56-69.31-19.09-105.29Z" transform="translate(-1 -1)" />
  <path class="e" d="M489.9,256,388.14,296.68,301.89,256l100.8-35.95Z" transform="translate(-1 -1)" />
  <path class="e" d="M536.06,256l87.17-35.94L724.07,256l-86.23,40.69Z" transform="translate(-1 -1)" />
  <path class="d" d="M225,679.52c-5.42-30-10.84-59.9-16.49-91.11,25.19,19.74,49.39,38.7,73.75,57.77,4.33,30.48,8.67,61,13.23,93Z" transform="translate(-1 -1)" />
  <path class="d" d="M801,679.5l-70.47,59.69c4.52-31.87,8.84-62.29,13.2-93l73.76-57.79C811.82,619.67,806.4,649.64,801,679.5Z" transform="translate(-1 -1)" />
  <path class="e" d="M513,246.8,427.3,212.6l-.21-1.16L513,180.81l87.33,31.11Z" transform="translate(-1 -1)" />
</svg>
